# xmcd
#
# Track frame offsets:
#	300
#	14511
#	25943
#	41297
#	61045
#	72897
#	87078
#	99190
#	114353
#	132241
#	146704
#	160293
#	174333
#	189997
#	205866
#
# Disc length: 2991 seconds
#
# Revision: 1
# Processed by: cddbd v1.4PL0 Copyright (c) Steve Scherf et al.
# Submitted via: EasyCDDAExtractor 5.1.0
#
DISCID=bd0bab0f
DTITLE=Patty Loveless - Artist Series CDG90048
DYEAR=1900
DGENRE=
TTITLE0=If My Heart Had Windows
TTITLE1=A Little Bit in Love
TTITLE2=The Blue Side Of Town
TTITLE3=Don't Toss Us Away
TTITLE4=Timber I'm Falling in Love
TTITLE5=The Lonely Side of Love
TTITLE6=Chains
TTITLE7=On Down The Line
TTITLE8=The Night's Too Long
TTITLE9=I'm That Kind Of Girl
TTITLE10=Blue Memories
TTITLE11=Hurt Me Bad (In a Real Good Way)
TTITLE12=Jealous Bone
TTITLE13=Can't Stop Myself From Loving You
TTITLE14=Nothin' But the Wheel
EXTD=
EXTT0=
EXTT1=
EXTT2=
EXTT3=
EXTT4=
EXTT5=
EXTT6=
EXTT7=
EXTT8=
EXTT9=
EXTT10=
EXTT11=
EXTT12=
EXTT13=
EXTT14=
PLAYORDER=
